<?xml version="1.0" encoding="utf-8"?>
<svg viewBox="0 0 500 500" xmlns="http://www.w3.org/2000/svg" xmlns:bx="https://boxy-svg.com">
  <defs>
    <linearGradient gradientUnits="userSpaceOnUse" x1="147.264" y1="137.37" x2="147.264" y2="159.488" id="gradient-4" gradientTransform="matrix(1, 0, 0, 1, -51.140833, -15.554723)">
      <stop offset="0" style="stop-color: rgba(255, 255, 255, 1)"/>
      <stop offset="1" style="stop-color: rgba(204, 204, 204, 1)"/>
    </linearGradient>
    <linearGradient gradientUnits="userSpaceOnUse" x1="146.682" y1="75.087" x2="146.682" y2="116.453" id="gradient-3" gradientTransform="matrix(1, 0, 0, 1, -20.24084, -20.254986)">
      <stop offset="0" style="stop-color: rgba(255, 255, 255, 1)"/>
      <stop offset="1" style="stop-color: rgba(204, 204, 204, 1)"/>
    </linearGradient>
    <linearGradient gradientUnits="userSpaceOnUse" x1="147.264" y1="137.37" x2="147.264" y2="159.488" id="gradient-5" gradientTransform="matrix(1, 0, 0, 1, 88.042673, -65.942043)">
      <stop offset="0" style="stop-color: rgba(255, 255, 255, 1)"/>
      <stop offset="1" style="stop-color: rgba(204, 204, 204, 1)"/>
    </linearGradient>
    <linearGradient gradientUnits="userSpaceOnUse" x1="147.264" y1="137.37" x2="147.264" y2="159.488" id="gradient-9" gradientTransform="matrix(0.740935, 0, 0, 0.740935, 74.854959, -41.479297)">
      <stop offset="0" style="stop-color: rgba(255, 255, 255, 1)"/>
      <stop offset="1" style="stop-color: rgba(204, 204, 204, 1)"/>
    </linearGradient>
    <linearGradient gradientUnits="userSpaceOnUse" x1="221.188" y1="93.779" x2="221.188" y2="145.001" id="gradient-13" gradientTransform="matrix(1, 0, 0, 1, -3.801143, 23.862835)">
      <stop offset="0" style="stop-color: rgba(120, 178, 54, 1)"/>
      <stop offset="1" style="stop-color: rgba(67, 100, 30, 1)"/>
    </linearGradient>
    <linearGradient gradientUnits="userSpaceOnUse" x1="204.308" y1="71.951" x2="204.308" y2="145.874" id="gradient-14" gradientTransform="matrix(1, 0, 0, 1, -2.788156, 22.462915)">
      <stop offset="0" style="stop-color: rgba(120, 178, 54, 1)"/>
      <stop offset="1" style="stop-color: rgba(67, 100, 30, 1)"/>
    </linearGradient>
    <linearGradient gradientUnits="userSpaceOnUse" x1="166.764" y1="84.756" x2="166.764" y2="140.053" id="gradient-15" gradientTransform="matrix(1, 0, 0, 1, 18.214692, 5.435615)">
      <stop offset="0" style="stop-color: rgba(120, 178, 54, 1)"/>
      <stop offset="1" style="stop-color: rgba(67, 100, 30, 1)"/>
    </linearGradient>
    <linearGradient gradientUnits="userSpaceOnUse" x1="204.307" y1="84.466" x2="204.307" y2="108.913" id="gradient-16" gradientTransform="matrix(1, 0, 0, 1, -34.500343, 23.795771)">
      <stop offset="0" style="stop-color: rgba(120, 178, 54, 1)"/>
      <stop offset="1" style="stop-color: rgba(67, 100, 30, 1)"/>
    </linearGradient>
    <linearGradient gradientUnits="userSpaceOnUse" x1="172.876" y1="107.167" x2="172.876" y2="116.479" id="gradient-17" gradientTransform="matrix(1, 0, 0, 1, -20.781042, 29.097254)">
      <stop offset="0" style="stop-color: rgba(120, 178, 54, 1)"/>
      <stop offset="1" style="stop-color: rgba(67, 100, 30, 1)"/>
    </linearGradient>
    <linearGradient gradientUnits="userSpaceOnUse" x1="207.8" y1="94.218" x2="207.8" y2="461.001" id="gradient-0" gradientTransform="matrix(1, 0, 0, 1, -12.670943, 22.700816)">
      <stop offset="0" style="stop-color: rgba(123, 182, 55, 1)"/>
      <stop offset="1" style="stop-color: rgba(70, 104, 31, 1)"/>
    </linearGradient>
    <linearGradient gradientUnits="userSpaceOnUse" x1="147.264" y1="137.37" x2="147.264" y2="159.488" id="gradient-12" gradientTransform="matrix(0.740935, 0, 0, 0.740935, 158.995687, 9.809444)">
      <stop offset="0" style="stop-color: rgba(255, 255, 255, 1)"/>
      <stop offset="1" style="stop-color: rgba(204, 204, 204, 1)"/>
    </linearGradient>
  </defs>
  <polygon style="fill: rgb(216, 216, 216); stroke: rgb(0, 0, 0);" points="164.144 153.085"/>
  <path style="fill: rgb(216, 216, 216); stroke: rgb(0, 0, 0);" d="M 370.78 222.352"/>
  <path style="stroke-linecap: round; stroke: url(#gradient-4); fill: none; stroke-width: 7px;" d="M 96.122 143.933 C 104.635 143.933 109.956 134.717 105.7 127.345 C 101.443 119.972 90.801 119.972 86.545 127.345 C 85.574 129.026 85.063 130.932 85.063 132.873" transform="matrix(0.309017, -0.951057, 0.951057, 0.309017, -59.946323, 183.239247)"/>
  <path style="stroke-linecap: round; stroke-width: 10px; stroke: url(#gradient-3); fill: none;" d="M 126.44 54.832 C 142.362 54.832 152.313 72.068 144.352 85.856 C 136.391 99.645 116.489 99.645 108.528 85.856 C 104.49 78.861 104.893 70.155 109.56 63.563" transform="matrix(0.956305, 0.292372, -0.292372, 0.956305, 27.603925, -33.672427)"/>
  <path style="stroke-linecap: round; stroke-width: 10px; stroke: url(#gradient-5); fill: none;" d="M 235.306 93.545 C 243.819 93.545 249.14 84.329 244.884 76.957 C 240.627 69.584 229.985 69.584 225.729 76.957 C 224.758 78.638 224.247 80.544 224.247 82.485" transform="matrix(0.956305, 0.292372, -0.292372, 0.956305, 34.398759, -65.195056)"/>
  <path style="stroke-linecap: round; stroke: url(#gradient-9); fill: none; stroke-width: 9px;" d="M 183.97 76.691 C 190.277 76.691 194.219 69.862 191.066 64.4 C 187.912 58.938 180.027 58.938 176.874 64.4 C 176.154 65.646 175.776 67.058 175.776 68.496" transform="matrix(0.981627, -0.190808, 0.190808, 0.981627, -9.689718, 36.3626)"/>
  <path style="stroke-width: 6px; stroke-linecap: round; stroke-miterlimit: 1; stroke: url(#gradient-13); fill: none;" d="M 188.283 154.895 L 244.744 117.642" transform="matrix(-0.956305, -0.292372, 0.292372, -0.956305, 383.725343, 329.88514)"/>
  <path style="stroke-width: 6px; stroke-linecap: round; stroke-miterlimit: 1; stroke: url(#gradient-14); fill: none;" d="M 192.206 150.874 L 211.415 94.414" transform="matrix(-0.956305, -0.292372, 0.292372, -0.956305, 358.945193, 298.932714)"/>
  <path style="stroke-width: 6px; stroke-linecap: round; stroke-miterlimit: 1; stroke: url(#gradient-15); fill: none;" d="M 192.837 145.488 L 175.375 90.191" transform="matrix(-0.956305, -0.292372, 0.292372, -0.956305, 325.714511, 284.357369)"/>
  <path style="stroke-width: 6px; stroke-linecap: round; stroke-miterlimit: 1; stroke: url(#gradient-16); fill: none;" d="M 190.18 140.276 L 142.45 108.262" transform="matrix(-0.956305, -0.292372, 0.292372, -0.956305, 289.030075, 291.733837)"/>
  <path style="stroke-width: 6px; stroke-linecap: round; stroke-miterlimit: 1; stroke: url(#gradient-17); fill: none;" d="M 118.916 145.576 L 184.376 135.321" transform="matrix(0.956305, 0.292372, -0.292372, 0.956305, 47.846829, -38.310594)"/>
  <path style="stroke-width: 10px; stroke: url(#gradient-0); stroke-linecap: round; fill: none;" d="M 185.239 145.85 C 186.002 147.206 185.826 223.609 185.817 224.68" bx:origin="0 0.5"/>
  <path style="stroke-linecap: round; stroke-width: 10px; stroke: url(#gradient-12); fill: none;" d="M 268.11 127.979 C 274.417 127.979 278.359 121.15 275.206 115.688 C 272.052 110.226 264.167 110.226 261.014 115.688 C 260.294 116.934 259.916 118.346 259.916 119.784" transform="matrix(0.981627, -0.190808, 0.190808, 0.981627, -17.930019, 53.359516)"/>
</svg>